<?xml version="1.0" encoding="UTF-8"?>
<svg id="Layer_1" data-name="Layer 1" xmlns="http://www.w3.org/2000/svg" viewBox="0 0 879.4 200.9">
  <defs>
    <style>
      .cls-1 {
        fill: #111;
      }

<!--       .cls-1, .cls-2 {
        stroke-width: 0px;
      } -->

      .cls-2 {
        fill: #056dff;
      }
    </style>
  </defs>
  <g>
    <path class="cls-1" d="m0,198.19L23.41,48.87h32.82l-4.57,29.32c3.23-9.95,8.88-17.78,16.95-23.48,8.07-5.7,17.76-8.55,29.06-8.55,15.07,0,26.01,4.89,32.82,14.66,6.81,9.77,8.88,23.44,6.19,41l-2.15,14.12h-33.63l1.88-12.49c1.43-9.05.18-15.97-3.77-20.77-3.95-4.79-10.22-7.19-18.83-7.19s-15.97,2.71-21.52,8.14c-5.56,5.43-9.15,13.12-10.76,23.08l-14.26,91.49H0Z"/>
    <path class="cls-1" d="m193.98,200.9c-12.38,0-22.78-2.44-31.21-7.33-8.43-4.89-14.49-11.72-18.16-20.5-3.68-8.78-4.62-19.05-2.83-30.81l5.92-37.47c2.87-18.64,10.49-33.08,22.87-43.3,12.38-10.22,28.34-15.34,47.89-15.34,12.38,0,22.78,2.44,31.21,7.33,8.43,4.89,14.53,11.72,18.3,20.5,3.77,8.78,4.66,18.96,2.69,30.54l-5.92,37.74c-3.05,18.64-10.72,33.08-23,43.3-12.29,10.23-28.21,15.34-47.76,15.34Zm4.84-29.59c8.79,0,16.01-2.49,21.66-7.47,5.65-4.98,9.19-12.17,10.63-21.58l5.92-37.47c1.43-9.41.13-16.6-3.9-21.58-4.04-4.98-10.54-7.47-19.51-7.47s-16.01,2.49-21.66,7.47c-5.65,4.98-9.19,12.17-10.63,21.58l-5.92,37.47c-1.44,9.41-.13,16.61,3.9,21.58,4.04,4.98,10.54,7.47,19.51,7.47Z"/>
    <path class="cls-1" d="m266.36,198.19l23.41-149.32h27.98l-3.23,21.72h.54c1.79-7.24,5.29-13.12,10.49-17.65,5.2-4.52,11.21-6.79,18.03-6.79,6.46,0,11.7,2.13,15.74,6.38,4.04,4.26,6.23,9.82,6.59,16.7,2.15-7.06,5.87-12.67,11.17-16.83,5.29-4.16,11.34-6.24,18.16-6.24,8.97,0,15.87,3.58,20.72,10.72,4.84,7.15,6.28,16.34,4.3,27.56l-17.76,113.75h-29.6l17.22-111.31c.9-4.89.45-8.73-1.35-11.54-1.79-2.8-4.75-4.21-8.88-4.21-8.07,0-12.91,5.25-14.53,15.75l-17.49,111.31h-26.91l17.49-111.31c.71-4.89.27-8.73-1.35-11.54-1.61-2.8-4.49-4.21-8.61-4.21-8.43,0-13.36,5.25-14.8,15.75l-17.76,111.31h-29.6Z"/>
    <path class="cls-1" d="m414.33,198.19L445.54,0h33.63l-7.8,48.87-5.38,28.51c3.23-9.59,8.79-17.19,16.68-22.8,7.89-5.61,17.31-8.42,28.25-8.42,14.53,0,25.38,4.89,32.55,14.66,7.17,9.77,9.42,22.9,6.73,39.37l-15.34,98.01h-33.63l14.8-93.94c1.43-9.23.18-16.33-3.77-21.31-3.95-4.98-9.96-7.47-18.03-7.47s-15.47,2.54-21.12,7.6c-5.65,5.07-9.19,12.31-10.63,21.72l-14.53,93.39h-33.63Z"/>
    <path class="cls-1" d="m613.7,200.9c-18.83,0-32.78-5.29-41.84-15.88-9.06-10.59-12.15-25.02-9.28-43.3l14.53-92.85h33.63l-14.53,92.58c-1.44,9.59-.23,16.97,3.63,22.13,3.85,5.16,10,7.74,18.43,7.74s15.69-2.58,21.25-7.74c5.56-5.16,9.06-12.53,10.49-22.13l14.53-92.58h33.63l-14.53,92.85c-2.87,18.83-10.41,33.39-22.6,43.71-12.2,10.32-27.98,15.47-47.35,15.47Z"/>
    <path class="cls-1" d="m767.06,200.9c-10.41,0-18.7-2.63-24.89-7.87s-9.82-12.58-10.9-21.99l-4.3,27.15h-32.82L725.35,0h33.63l-6.73,41.81-6.19,33.67c4.12-9.41,10.04-16.65,17.76-21.72,7.71-5.07,16.95-7.6,27.71-7.6,14.53,0,25.33,5.16,32.42,15.47,7.08,10.32,9.28,24.26,6.59,41.81l-6.46,40.45c-2.69,17.74-9.11,31.67-19.24,41.81-10.14,10.14-22.74,15.2-37.8,15.2Zm-7.8-29.32c8.61,0,15.65-2.35,21.12-7.06,5.47-4.7,8.92-11.95,10.36-21.72l6.19-38.55c1.43-9.77.13-17.01-3.9-21.72-4.04-4.7-10.36-7.06-18.97-7.06s-15.7,2.63-21.25,7.87c-5.56,5.25-9.06,12.67-10.49,22.26l-5.65,35.84c-1.44,9.59-.18,17.01,3.77,22.26,3.94,5.25,10.22,7.87,18.83,7.87Z"/>
  </g>
  <path class="cls-2" d="m854.38,200.48c-7.53,0-13.59-2.31-18.16-6.92s-6.86-10.63-6.86-18.05,2.29-13.48,6.86-18.19c4.57-4.7,10.63-7.06,18.16-7.06s13.59,2.35,18.16,7.06c4.57,4.71,6.86,10.77,6.86,18.19s-2.29,13.44-6.86,18.05c-4.57,4.62-10.63,6.92-18.16,6.92Z"/>
</svg>
